<?xml version="1.0" encoding="UTF-8"?>
<!DOCTYPE svg PUBLIC "-//W3C//DTD SVG 1.1//EN" "http://www.w3.org/Graphics/SVG/1.1/DTD/svg11.dtd">
<!-- Creator: CorelDRAW X6 -->
<svg xmlns="http://www.w3.org/2000/svg" xml:space="preserve" width="2.77778in" height="2.77778in" version="1.1" style="shape-rendering:geometricPrecision; text-rendering:geometricPrecision; image-rendering:optimizeQuality; fill-rule:evenodd; clip-rule:evenodd"
viewBox="0 0 2778 2778"
 xmlns:xlink="http://www.w3.org/1999/xlink">
 <defs>
  <style type="text/css">
   <![CDATA[
    .fil0 {fill:#E1011C;fill-rule:nonzero}
    .fil1 {fill:#FFFFFE;fill-rule:nonzero}
   ]]>
  </style>
 </defs>
 <g id="Layer_x0020_1">
  <metadata id="CorelCorpID_0Corel-Layer"/>
  <path class="fil0" d="M1389 2778c767,0 1389,-622 1389,-1389 0,-767 -622,-1389 -1389,-1389 -767,0 -1389,622 -1389,1389 0,767 622,1389 1389,1389z"/>
  <path class="fil1" d="M776 734l0 472c72,-86 158,-129 258,-129 52,0 98,10 139,29 42,19 73,44 93,74 21,31 35,64 43,101 8,37 11,94 11,171l0 505 -224 0 0 -455c0,-90 -4,-148 -13,-172 -8,-24 -23,-44 -45,-58 -22,-15 -48,-22 -81,-22 -37,0 -70,9 -99,28 -29,19 -51,46 -64,83 -14,37 -20,92 -20,164l0 431 -223 0 0 -1224 223 0 0 0z"/>
  <path class="fil1" d="M1656 734l0 472c72,-86 158,-129 258,-129 51,0 98,10 139,29 41,19 72,44 93,74 21,31 35,64 43,101 8,37 12,94 12,171l0 505 -223 0 0 -455c0,-90 -4,-148 -13,-172 -8,-24 -23,-44 -45,-58 -21,-15 -48,-22 -81,-22 -37,0 -70,9 -99,28 -29,19 -50,46 -64,83 -13,37 -20,92 -20,164l0 431 -223 0 0 -1224 223 0 0 0z"/>
 </g>
</svg>
